<svg width="20" height="23" viewBox="0 0 20 23" fill="none" xmlns="http://www.w3.org/2000/svg">
<g clip-path="url(#clip0)">
<path d="M9.99932 22.8571C11.5761 22.8571 12.8551 21.5781 12.8551 20H7.14352C7.14352 21.5781 8.42254 22.8571 9.99932 22.8571ZM19.6149 16.1737C18.7524 15.2469 17.1386 13.8527 17.1386 9.28571C17.1386 5.81696 14.7065 3.04018 11.427 2.35893V1.42857C11.427 0.639732 10.7877 0 9.99932 0C9.21093 0 8.57164 0.639732 8.57164 1.42857V2.35893C5.29218 3.04018 2.86004 5.81696 2.86004 9.28571C2.86004 13.8527 1.2462 15.2469 0.383704 16.1737C0.115847 16.4616 -0.00290318 16.8058 -0.000671039 17.1429C0.00423967 17.875 0.578793 18.5714 1.43236 18.5714H18.5663C19.4199 18.5714 19.9949 17.875 19.9993 17.1429C20.0015 16.8058 19.8828 16.4612 19.6149 16.1737Z" fill="#2C3842"/>
</g>
<defs>
<clipPath id="clip0">
<rect width="20" height="22.8571" fill="white"/>
</clipPath>
</defs>
</svg>
