<svg width="24" height="22" viewBox="0 0 24 22" fill="none" xmlns="http://www.w3.org/2000/svg">
<g clip-path="url(#clip0)">
<path d="M11.6821 6.1775L4 12.5046V19.3333C4 19.5101 4.07024 19.6797 4.19527 19.8047C4.32029 19.9298 4.48986 20 4.66667 20L9.33582 19.9879C9.51206 19.987 9.68077 19.9164 9.80507 19.7915C9.92938 19.6666 9.99916 19.4975 9.99916 19.3213V15.3333C9.99916 15.1565 10.0694 14.987 10.1944 14.8619C10.3194 14.7369 10.489 14.6667 10.6658 14.6667H13.3325C13.5093 14.6667 13.6789 14.7369 13.8039 14.8619C13.9289 14.987 13.9991 15.1565 13.9991 15.3333V19.3183C13.9989 19.4061 14.0159 19.493 14.0493 19.5741C14.0827 19.6552 14.1317 19.729 14.1937 19.7911C14.2556 19.8532 14.3292 19.9025 14.4102 19.9361C14.4912 19.9698 14.5781 19.9871 14.6658 19.9871L19.3333 20C19.5101 20 19.6797 19.9298 19.8047 19.8047C19.9297 19.6797 20 19.5101 20 19.3333V12.5L12.3196 6.1775C12.2293 6.10472 12.1168 6.06503 12.0008 6.06503C11.8848 6.06503 11.7724 6.10472 11.6821 6.1775ZM23.8166 10.4779L20.3333 7.60667V1.83542C20.3333 1.70281 20.2806 1.57563 20.1869 1.48187C20.0931 1.3881 19.9659 1.33542 19.8333 1.33542H17.5C17.3674 1.33542 17.2402 1.3881 17.1464 1.48187C17.0527 1.57563 17 1.70281 17 1.83542V4.86084L13.2696 1.79167C12.9116 1.49708 12.4624 1.33601 11.9987 1.33601C11.5351 1.33601 11.0859 1.49708 10.7279 1.79167L0.180847 10.4779C0.130217 10.5198 0.0883285 10.5712 0.0575753 10.6292C0.026822 10.6873 0.00780661 10.7508 0.00161554 10.8162C-0.00457553 10.8816 0.00217908 10.9476 0.0214934 11.0103C0.0408078 11.0731 0.0723033 11.1315 0.11418 11.1821L1.17668 12.4738C1.21844 12.5245 1.26981 12.5666 1.32784 12.5975C1.38588 12.6284 1.44944 12.6475 1.51488 12.6539C1.58033 12.6602 1.64638 12.6535 1.70924 12.6342C1.77211 12.615 1.83057 12.5835 1.88126 12.5417L11.6821 4.46917C11.7724 4.39639 11.8848 4.3567 12.0008 4.3567C12.1168 4.3567 12.2293 4.39639 12.3196 4.46917L22.1208 12.5417C22.1714 12.5835 22.2298 12.615 22.2925 12.6344C22.3553 12.6537 22.4213 12.6604 22.4867 12.6542C22.5521 12.648 22.6156 12.629 22.6737 12.5983C22.7317 12.5675 22.7831 12.5256 22.825 12.475L23.8875 11.1833C23.9293 11.1324 23.9607 11.0738 23.9797 11.0107C23.9988 10.9477 24.0053 10.8815 23.9987 10.8159C23.9921 10.7503 23.9726 10.6867 23.9414 10.6287C23.9101 10.5707 23.8677 10.5195 23.8166 10.4779Z" fill="#2C3842"/>
</g>
<defs>
<clipPath id="clip0">
<rect width="24" height="21.3333" fill="white"/>
</clipPath>
</defs>
</svg>
