<svg width="24" height="28" viewBox="0 0 24 28" fill="none" xmlns="http://www.w3.org/2000/svg">
<path d="M22.2857 11.1429H14.5714V3.42858C14.5714 2.48197 13.8038 1.71429 12.8571 1.71429H11.1429C10.1962 1.71429 9.42857 2.48197 9.42857 3.42858V11.1429H1.71429C0.767679 11.1429 0 11.9105 0 12.8572V14.5714C0 15.518 0.767679 16.2857 1.71429 16.2857H9.42857V24C9.42857 24.9466 10.1962 25.7143 11.1429 25.7143H12.8571C13.8038 25.7143 14.5714 24.9466 14.5714 24V16.2857H22.2857C23.2323 16.2857 24 15.518 24 14.5714V12.8572C24 11.9105 23.2323 11.1429 22.2857 11.1429Z" fill="#2C3842"/>
</svg>
