<svg width="36" height="36" viewBox="0 0 36 36" fill="none" xmlns="http://www.w3.org/2000/svg">
<path d="M34.875 9.00002V10.125C34.875 10.2742 34.8157 10.4173 34.7102 10.5228C34.6048 10.6283 34.4617 10.6875 34.3125 10.6875H32.625V11.5313C32.625 11.9972 32.2472 12.375 31.7812 12.375H4.21875C3.75279 12.375 3.375 11.9972 3.375 11.5313V10.6875H1.6875C1.53832 10.6875 1.39524 10.6283 1.28975 10.5228C1.18426 10.4173 1.125 10.2742 1.125 10.125V9.00002C1.125 8.88874 1.15801 8.77995 1.21985 8.68743C1.28169 8.59492 1.36959 8.52282 1.47241 8.48027L17.7849 2.29277C17.9226 2.23574 18.0774 2.23574 18.2151 2.29277L34.5276 8.48027C34.6304 8.52282 34.7183 8.59492 34.7801 8.68743C34.842 8.77995 34.875 8.88874 34.875 9.00002ZM33.1875 30.375H2.8125C1.88051 30.375 1.125 31.1305 1.125 32.0625V33.1875C1.125 33.3367 1.18426 33.4798 1.28975 33.5853C1.39524 33.6908 1.53832 33.75 1.6875 33.75H34.3125C34.4617 33.75 34.6048 33.6908 34.7102 33.5853C34.8157 33.4798 34.875 33.3367 34.875 33.1875V32.0625C34.875 31.1305 34.1195 30.375 33.1875 30.375ZM6.75 13.5V27H4.21875C3.75279 27 3.375 27.3778 3.375 27.8438V29.25H32.625V27.8438C32.625 27.3778 32.2472 27 31.7812 27H29.25V13.5H24.75V27H20.25V13.5H15.75V27H11.25V13.5H6.75Z" fill="#2C3842"/>
</svg>
